<svg width="400" height="400" viewBox="0 0 400 400" fill="none" xmlns="http://www.w3.org/2000/svg">
<g clip-path="url(#clip0_465_491)">
<path d="M199.99 41.5824C36.9759 41.5824 -95.6504 169.885 -95.6504 327.566V358.379H495.649V327.566C495.649 169.868 363.022 41.5824 199.99 41.5824Z" fill="#BBBBBB"/>
<path d="M199.99 46.5824C36.9759 46.5824 -95.6504 174.885 -95.6504 332.566V363.379H-16.7125V332.566C-16.7125 216.968 80.4937 122.933 199.99 122.933C319.505 122.933 416.711 216.968 416.711 332.566V363.379H495.649V332.566C495.649 174.868 363.022 46.5824 199.99 46.5824Z" fill="#CBAC85"/>
<path d="M199.994 122.95C80.4974 122.95 -16.7441 217.019 -16.7441 332.6V363.413H62.1938V332.6C62.1938 259.12 123.997 199.301 199.994 199.301C275.991 199.301 337.794 259.102 337.794 332.6V363.413H416.732V332.6C416.732 217.002 319.491 122.95 199.994 122.95Z" fill="#965015"/>
<path d="M199.998 199.249C123.984 199.249 62.1621 259.068 62.1621 332.584V363.38H141.1V332.584C141.1 301.168 167.519 275.635 199.962 275.635C232.423 275.635 258.842 301.186 258.842 332.584V363.38H337.763V332.584C337.763 259.05 275.941 199.249 199.945 199.249H199.998Z" fill="#6A3005"/>
<path d="M141.135 363.416V332.602C141.135 301.204 167.536 275.671 199.997 275.671C232.441 275.671 258.86 301.222 258.86 332.602V363.416H141.1H141.135Z" fill="#3E1E04"/>
<path d="M348.21 200C348.21 118.146 281.854 51.79 200 51.79C118.146 51.79 51.79 118.146 51.79 200C51.79 281.854 118.146 348.21 200 348.21V400C89.5431 400 0 310.457 0 200C0 89.5431 89.5431 0 200 0C310.457 0 400 89.5431 400 200C400 310.457 310.457 400 200 400V348.21C281.854 348.21 348.21 281.854 348.21 200Z" fill="black"/>
</g>
<defs>
<clipPath id="clip0_465_491">
<rect width="400" height="400" rx="200" fill="white"/>
</clipPath>
</defs>
</svg>
